<svg width="20" height="20" viewBox="0 0 20 20" fill="none" xmlns="http://www.w3.org/2000/svg">
    <path d="M1.5625 5.875C1.252 5.875 1 5.623 1 5.3125V3.0625C1 1.92475 1.92475 1 3.0625 1H5.3125C5.623 1 5.875 1.252 5.875 1.5625C5.875 1.873 5.623 2.125 5.3125 2.125H3.0625C2.54575 2.125 2.125 2.54575 2.125 3.0625V5.3125C2.125 5.623 1.873 5.875 1.5625 5.875Z" fill="white" stroke="white"/>
    <path d="M5.3125 19H3.0625C1.92475 19 1 18.0752 1 16.9375V14.6875C1 14.377 1.252 14.125 1.5625 14.125C1.873 14.125 2.125 14.377 2.125 14.6875V16.9375C2.125 17.4542 2.54575 17.875 3.0625 17.875H5.3125C5.623 17.875 5.875 18.127 5.875 18.4375C5.875 18.748 5.623 19 5.3125 19Z" fill="white" stroke="white"/>
    <path d="M18.4375 5.875C18.127 5.875 17.875 5.623 17.875 5.3125V3.0625C17.875 2.54575 17.4542 2.125 16.9375 2.125H14.6875C14.377 2.125 14.125 1.873 14.125 1.5625C14.125 1.252 14.377 1 14.6875 1H16.9375C18.0752 1 19 1.92475 19 3.0625V5.3125C19 5.623 18.748 5.875 18.4375 5.875Z" fill="white" stroke="white"/>
    <path d="M16.9375 19H14.6875C14.377 19 14.125 18.748 14.125 18.4375C14.125 18.127 14.377 17.875 14.6875 17.875H16.9375C17.4542 17.875 17.875 17.4542 17.875 16.9375V14.6875C17.875 14.377 18.127 14.125 18.4375 14.125C18.748 14.125 19 14.377 19 14.6875V16.9375C19 18.0752 18.0752 19 16.9375 19Z" fill="white" stroke="white"/>
    <path d="M11.2542 6.90759C11.2542 5.85916 12.0943 5.0059 13.1271 5.0059C14.1594 5.0059 14.9995 5.85894 14.9995 6.90759C14.9995 7.20942 14.7587 7.45399 14.4615 7.45399C14.1643 7.45399 13.9235 7.20942 13.9235 6.90759C13.9235 6.46151 13.5663 6.0987 13.1271 6.0987C12.6876 6.0987 12.3302 6.46151 12.3302 6.90759C12.3302 7.20942 12.0894 7.45399 11.7922 7.45399C11.495 7.45399 11.2542 7.20921 11.2542 6.90759ZM5.28827 6.90169C5.28827 5.85326 6.1284 5 7.16113 5C8.19344 5 9.03357 5.85304 9.03357 6.90169C9.03357 7.20352 8.79276 7.44809 8.49557 7.44809C8.19838 7.44809 7.95758 7.20352 7.95758 6.90169C7.95758 6.45561 7.60035 6.0928 7.16113 6.0928C6.7217 6.0928 6.36426 6.45561 6.36426 6.90169C6.36426 7.20352 6.12345 7.44809 5.82626 7.44809C5.52907 7.44809 5.28827 7.20352 5.28827 6.90169ZM5.04961 11.7867C4.91275 11.4523 5.06876 11.0685 5.39823 10.9298C5.47915 10.8957 5.56307 10.8795 5.64571 10.8795C5.89878 10.8795 6.13894 11.0316 6.24202 11.284C6.83963 12.7451 8.31976 13.6891 10.0129 13.6891C11.6678 13.6891 13.1393 12.7447 13.7619 11.2825C13.9035 10.9501 14.2835 10.7967 14.6104 10.9409C14.9377 11.0847 15.0884 11.4705 14.9468 11.8029C14.1202 13.745 12.1834 15 10.0129 15C7.79618 15.0002 5.848 13.7389 5.04961 11.7867Z" fill="white" stroke="white"/>
</svg>
