<svg width="104" height="104" viewBox="0 0 104 104" fill="none" xmlns="http://www.w3.org/2000/svg">
    <circle cx="52" cy="52" r="52" fill="#313246"/>
    <g clip-path="url(#clip0)">
        <path d="M51.5035 28C44.5034 28 38.7812 33.7222 38.7812 40.7222C38.7812 47.7223 44.5034 53.4445 51.5035 53.4445C58.5035 53.4445 64.2257 47.7223 64.2257 40.7222C64.2257 33.7222 58.5035 28 51.5035 28Z" fill="#939CB7"/>
        <path d="M73.3368 63.6112C73.0034 62.7778 72.559 62 72.059 61.2778C69.5034 57.5 65.5591 55 61.1146 54.3889C60.5591 54.3334 59.948 54.4444 59.5035 54.7777C57.1702 56.5 54.3924 57.3888 51.5035 57.3888C48.6145 57.3888 45.8368 56.5 43.5035 54.7777C43.059 54.4444 42.4478 54.2778 41.8923 54.3889C37.4479 55 33.4479 57.5 30.9479 61.2778C30.448 62 30.0035 62.8334 29.6702 63.6112C29.5036 63.9445 29.5591 64.3334 29.7257 64.6668C30.1702 65.4445 30.7257 66.2224 31.2257 66.889C32.0034 67.9446 32.8368 68.889 33.7813 69.7778C34.559 70.5556 35.4479 71.2778 36.3369 72.0001C40.7257 75.2779 46.0035 77 51.448 77C56.8924 77 62.1702 75.2778 66.5591 72.0001C67.4479 71.3334 68.3368 70.5556 69.1147 69.7778C70.0035 68.889 70.8924 67.9445 71.6703 66.889C72.2258 66.1667 72.7259 65.4445 73.1702 64.6668C73.4479 64.3334 73.5034 63.9444 73.3368 63.6112Z" fill="#939CB7"/>
    </g>
    <defs>
        <clipPath id="clip0">
            <rect width="49" height="49" fill="white" transform="translate(27 28)"/>
        </clipPath>
    </defs>
</svg>
