<svg width="17" height="18" viewBox="0 0 17 18" fill="none" xmlns="http://www.w3.org/2000/svg">
    <path d="M8.49692 3.759C5.87239 3.759 3.73731 5.9034 3.73731 8.53905C3.73731 9.8772 2.65318 10.9659 1.32068 10.9659C0.759161 10.9659 0.304199 11.4228 0.304199 11.9867C0.304199 12.5506 0.759161 13.0075 1.32068 13.0075C3.7744 13.0075 5.77054 11.0032 5.77054 8.53905C5.77054 7.02911 6.99361 5.80085 8.49692 5.80085C10.0002 5.80085 11.2236 7.02911 11.2236 8.53905C11.2236 11.5028 9.9156 14.2927 7.63557 16.1934C7.20359 16.5535 7.14404 17.1972 7.50263 17.6312C7.70374 17.8744 7.99338 18 8.28537 18C8.51415 18 8.74425 17.9229 8.93412 17.7647C11.6811 15.4748 13.2568 12.1121 13.2568 8.53905C13.2568 5.9034 11.1214 3.759 8.49692 3.759Z" fill="white"/>
    <path d="M0.976289 9.25376C1.53598 9.27448 2.01001 8.83778 2.03247 8.2744C2.17141 4.77952 5.01088 2.04185 8.49701 2.04185C12.0646 2.04185 14.9668 4.9563 14.9668 8.53904C14.9668 9.66606 14.8297 10.7873 14.5591 11.871C14.4225 12.4179 14.7534 12.9724 15.2979 13.1095C15.381 13.1305 15.464 13.1405 15.5458 13.1405C16.001 13.1405 16.4155 12.8313 16.5312 12.3675C16.8423 11.1217 17 9.83366 17 8.53904C17 3.8306 13.1856 0 8.49701 0C6.28566 0 4.19106 0.848213 2.59895 2.38806C1.01129 3.92371 0.0885642 5.98522 0.000810278 8.1931C-0.0213894 8.75647 0.415291 9.23146 0.976289 9.25376Z" fill="white"/>
    <path d="M8.49698 7.51825C7.93546 7.51825 7.48049 7.97514 7.48049 8.53904C7.48049 11.031 6.00356 13.2685 3.71804 14.2392C3.20092 14.4587 2.95908 15.0577 3.17768 15.5771C3.34169 15.9665 3.71831 16.2005 4.1145 16.2005C4.2464 16.2005 4.38064 16.1745 4.50992 16.1197C7.54944 14.8285 9.51346 11.8529 9.51346 8.53904C9.51346 7.97514 9.0585 7.51825 8.49698 7.51825Z" fill="white"/>
</svg>
